# xmcd
#
# Track frame offsets: 
#        150
#        21352
#        36293
#        69855
#        88561
#        115020
#        148342
#        166271
#        191329
#        219990
#        244552
#        268841
#
# Disc length: 3941 seconds
#
# Revision: 1
# Processed by: cddbd v1.5.2PL0 Copyright (c) Steve Scherf et al.
# Submitted via: ExactAudioCopy v0.99pb5
#
DISCID=a20f630c
DTITLE=Various Artist - Happy Days (Vol 1)
DYEAR=2010
DGENRE=Funk - Soul, Jazz - Jazz-Funk, Soul, Funk, Disco
TTITLE0=Chocolate Milk - My Mind is Hazy (Long Version)
TTITLE1=Ramsey Lewis  What's The Name of This Funk (Spider Man)
TTITLE2=Herbie Hanckock - Hang Up Your Hangups (Long Version)
TTITLE3=Lonnie Liston Smith - Sunburst (Album Version)
TTITLE4=Earth Wind and Fire - Runnin
TTITLE5=George Duke - Brazilian Love Affair (Album Version)
TTITLE6=Bruce Johnston - Pipeline
TTITLE7=Vicki Sue Robinson - Turn The Beat Around
TTITLE8=The Main Ingredient - Happiness Is Just Around the Bend
TTITLE9=The Jacksons - Show You The Way To Go (Album Version)
TTITLE10=Cheryl Lynn - Keep It Hot (Album Version)
TTITLE11=Linda Hopkins - It's In the Blood
EXTD=
EXTT0=
EXTT1=
EXTT2=
EXTT3=
EXTT4=
EXTT5=
EXTT6=
EXTT7=
EXTT8=
EXTT9=
EXTT10=
EXTT11=
PLAYORDER=
